<?xml version="1.0" encoding="UTF-8" standalone="no"?>
<svg
   xmlns:dc="http://purl.org/dc/elements/1.1/"
   xmlns:cc="http://creativecommons.org/ns#"
   xmlns:rdf="http://www.w3.org/1999/02/22-rdf-syntax-ns#"
   xmlns:svg="http://www.w3.org/2000/svg"
   xmlns="http://www.w3.org/2000/svg"
   xmlns:sodipodi="http://sodipodi.sourceforge.net/DTD/sodipodi-0.dtd"
   xmlns:inkscape="http://www.inkscape.org/namespaces/inkscape"
   inkscape:version="1.0beta2 (2b71d25, 2019-12-03)"
   sodipodi:docname="logo.svg"
   viewBox="0 0 474 474"
   height="474"
   width="474"
   id="svg140"
   version="1.1">
  <metadata
     id="metadata146">
    <rdf:RDF>
      <cc:Work
         rdf:about="">
        <dc:format>image/svg+xml</dc:format>
        <dc:type
           rdf:resource="http://purl.org/dc/dcmitype/StillImage" />
        <dc:title></dc:title>
      </cc:Work>
    </rdf:RDF>
  </metadata>
  <defs
     id="defs144">
    <filter
       id="filter429"
       inkscape:label="Clean Edges"
       style="color-interpolation-filters:sRGB;">
      <feGaussianBlur
         id="feGaussianBlur423"
         result="blur"
         stdDeviation="0.4" />
      <feComposite
         id="feComposite425"
         result="composite1"
         operator="in"
         in2="blur"
         in="SourceGraphic" />
      <feComposite
         id="feComposite427"
         result="fbSourceGraphic"
         operator="in"
         k2="1"
         in2="composite1"
         in="composite1" />
      <feColorMatrix
         id="feColorMatrix431"
         values="0 0 0 -1 0 0 0 0 -1 0 0 0 0 -1 0 0 0 0 1 0"
         in="fbSourceGraphic"
         result="fbSourceGraphicAlpha" />
      <feGaussianBlur
         in="fbSourceGraphic"
         result="blur"
         stdDeviation="0.4"
         id="feGaussianBlur433" />
      <feComposite
         result="composite1"
         operator="in"
         in="fbSourceGraphic"
         id="feComposite435"
         in2="blur" />
      <feComposite
         result="composite2"
         operator="in"
         k2="1"
         in="composite1"
         id="feComposite437"
         in2="composite1" />
    </filter>
    <filter
       style="color-interpolation-filters:sRGB"
       inkscape:label="Clean Edges"
       id="filter429-8">
      <feGaussianBlur
         stdDeviation="0.4"
         result="blur"
         id="feGaussianBlur423-7" />
      <feComposite
         in="SourceGraphic"
         in2="blur"
         operator="in"
         result="composite1"
         id="feComposite425-5" />
      <feComposite
         in="composite1"
         in2="composite1"
         operator="in"
         result="fbSourceGraphic"
         id="feComposite427-9" />
      <feColorMatrix
         result="fbSourceGraphicAlpha"
         in="fbSourceGraphic"
         values="0 0 0 -1 0 0 0 0 -1 0 0 0 0 -1 0 0 0 0 1 0"
         id="feColorMatrix431-5" />
      <feGaussianBlur
         id="feGaussianBlur433-3"
         stdDeviation="0.4"
         result="blur"
         in="fbSourceGraphic" />
      <feComposite
         in2="blur"
         id="feComposite435-2"
         in="fbSourceGraphic"
         operator="in"
         result="composite1" />
      <feComposite
         in2="composite1"
         id="feComposite437-7"
         in="composite1"
         operator="in"
         result="composite2" />
    </filter>
    <filter
       style="color-interpolation-filters:sRGB"
       inkscape:label="Clean Edges"
       id="filter429-3">
      <feGaussianBlur
         stdDeviation="0.4"
         result="blur"
         id="feGaussianBlur423-3" />
      <feComposite
         in="SourceGraphic"
         in2="blur"
         operator="in"
         result="composite1"
         id="feComposite425-3" />
      <feComposite
         in="composite1"
         in2="composite1"
         operator="in"
         result="fbSourceGraphic"
         id="feComposite427-8" />
      <feColorMatrix
         result="fbSourceGraphicAlpha"
         in="fbSourceGraphic"
         values="0 0 0 -1 0 0 0 0 -1 0 0 0 0 -1 0 0 0 0 1 0"
         id="feColorMatrix431-58" />
      <feGaussianBlur
         id="feGaussianBlur433-9"
         stdDeviation="0.4"
         result="blur"
         in="fbSourceGraphic" />
      <feComposite
         in2="blur"
         id="feComposite435-6"
         in="fbSourceGraphic"
         operator="in"
         result="composite1" />
      <feComposite
         in2="composite1"
         id="feComposite437-0"
         in="composite1"
         operator="in"
         result="composite2" />
    </filter>
  </defs>
  <sodipodi:namedview
     inkscape:current-layer="layer4"
     inkscape:window-maximized="0"
     inkscape:window-y="23"
     inkscape:window-x="0"
     inkscape:cy="187.17"
     inkscape:cx="200.6398"
     inkscape:zoom="0.8182144"
     showgrid="false"
     id="namedview142"
     inkscape:window-height="707"
     inkscape:window-width="1153"
     inkscape:pageshadow="2"
     inkscape:pageopacity="0"
     guidetolerance="10"
     gridtolerance="10"
     objecttolerance="10"
     borderopacity="1"
     inkscape:document-rotation="0"
     bordercolor="#666666"
     pagecolor="#ffffff" />
  <g
     inkscape:label="Image 2"
     id="layer4"
     inkscape:groupmode="layer">
    <ellipse
       style="display:inline;fill:#808000;stroke-width:1.04283"
       id="path528"
       cx="206.37357"
       cy="240.56888"
       rx="168.92595"
       ry="177.06696" />
    <path
       sodipodi:nodetypes="ccsscccsscc"
       inkscape:connector-curvature="0"
       id="path526-0"
       d="m 116.55952,332.4964 c -21.92974,5.18217 4.70379,30.93312 19.60369,33.32475 -9.11369,3.60216 -39.64325,-23.70883 -41.53343,-28.14258 -2.049108,-4.80657 -0.193327,-7.11827 14.71951,-11.72363 18.46414,-5.70206 15.25987,-7.53064 14.88,-14.74474 0.79658,-12.8261 18.63909,-21.91974 39.27567,-28.15105 26.39095,-4.60791 53.42836,-5.42041 80.49471,-1.09485 17.12361,2.89441 23.73341,5.5205 33.83818,11.72794 3.39126,2.08327 6.90903,7.93294 2.10574,16.06052 -6.48991,10.98148 -38.52987,19.89533 -62.26313,23.64819 -46.43978,5.61701 -66.62179,-8.3446 -101.12094,-0.90455 z"
       style="display:inline;fill:#800000;fill-opacity:1;stroke-width:0.437076" />
  </g>
  <g
     id="g148"
     inkscape:label="Image"
     inkscape:groupmode="layer" />
  <g
     style="display:inline"
     inkscape:label="Image 1"
     id="layer3"
     inkscape:groupmode="layer">
    <path
       id="path524"
       d="m 224.32766,178.38271 c -33.27741,1.81529 -38.92782,-25.51021 -31.94399,-38.971 6.98383,-13.46079 30.53926,-20.23492 45.82912,-2.73682 15.28987,17.49811 10.96496,42.91484 -2.94163,69.15313 -2.31233,-11.86379 -15.18945,-18.59025 -10.9435,-27.44531 z"
       style="fill:#333333;fill-opacity:1;stroke-width:0.642382" />
    <path
       id="path522"
       d="m 250.69021,195.02244 c 12.74525,-25.54501 1.99259,-27.28144 15.44091,-38.89915 -12.63984,-14.45514 11.63737,-30.41285 34.8201,-33.53004 23.18273,-3.11718 19.20231,12.8771 19.96316,25.10776 0.76085,12.23066 -2.67174,29.00806 -20.64886,27.9768 2.55372,16.30041 -17.01663,19.86287 -27.59446,22.83954 -10.57783,2.97668 -32.89498,12.80283 -34.08075,12.80283 -0.13096,0 9.04866,-10.18219 12.0999,-16.29774 z"
       style="fill:#333333;fill-opacity:1;stroke-width:0.642382" />
    <path
       id="path520"
       d="m 313.7213,250.61958 c -15.61398,-5.06937 19.06017,-37.17054 -14.47488,-30.62489 -33.53505,6.54565 -41.90829,2.38117 -54.64426,-2.56025 18.59101,-7.0403 0.9231,-2.91794 36.88937,-11.82724 35.96627,-8.9093 51.41231,52.14263 32.22977,45.01238 z"
       style="fill:#333333;fill-opacity:1;stroke-width:0.642382" />
    <circle
       r="0.57601231"
       cy="252.54594"
       cx="118.77732"
       style="fill:#ffffff;stroke:#000000"
       id="path390" />
    <circle
       r="0.57601231"
       cy="254.85231"
       cx="144.14723"
       style="fill:#ffffff;stroke:#000000"
       id="path396" />
    <path
       style="fill:#ffffff;fill-opacity:1;stroke-width:0.627829"
       d="m 109.0128,329.12841 c -17.930868,15.69903 12.03126,35.00972 27.15041,36.69274 -6.73247,9.5498 -41.112128,-12.1532 -45.081278,-20.99371 -4.302901,-9.58388 -3.715743,-14.82486 7.940746,-27.7592 14.432342,-16.01452 10.528262,-19.12152 6.590502,-34.10505 -5.624732,-26.96676 6.5421,-49.92703 22.74284,-67.52991 22.38729,-15.49137 47.26385,-23.19903 74.71906,-20.18131 17.448,2.23879 24.93231,6.25446 37.46295,16.9735 4.2054,3.5974 10.39953,15.03348 9.94465,33.07724 -0.61461,24.3796 -26.14537,50.12052 -46.47233,63.23512 -40.63187,22.05605 -66.43553,-2.61876 -94.99755,20.59058 z"
       id="path526"
       inkscape:connector-curvature="0"
       sodipodi:nodetypes="ccsscccsscc" />
  </g>
</svg>
